<?xml version="1.0" encoding="iso-8859-1"?>
<!-- Uploaded to: SVG Repo, www.svgrepo.com, Generator: SVG Repo Mixer Tools -->
<svg height="800px" width="800px" version="1.1" id="Layer_1" xmlns="http://www.w3.org/2000/svg" xmlns:xlink="http://www.w3.org/1999/xlink" 
	 viewBox="0 0 512 512" xml:space="preserve">
<circle style="fill:#1A468D;" cx="256" cy="256" r="256"/>
<path style="fill:#050B55;" d="M150.2,368.6l141,141c115.2-15.8,205.9-108.3,219.1-224.2L367.9,142.9L150.2,368.6z"/>
<path style="fill:#FFFFFF;" d="M368.5,337.4l-82.8-82.8l82.8-82.8c7.8-7.8,7.8-20.5,0-28.3s-20.5-7.8-28.3,0l-82.8,82.8l-82.8-82.8
	c-7.8-7.8-20.5-7.8-28.3,0s-7.8,20.5,0,28.3l82.8,82.8l-82.8,82.8c-7.8,7.8-7.8,20.5,0,28.3c3.9,3.9,9,5.9,14.1,5.9s10.2-2,14.1-5.9
	l82.8-82.8l82.8,82.8c3.9,3.9,9,5.9,14.1,5.9s10.2-2,14.1-5.9C376.3,357.9,376.3,345.2,368.5,337.4z"/>
</svg>